<svg xmlns="http://www.w3.org/2000/svg" viewBox="0 0 16 16" width="16" height="16">
	<style>
		tspan { white-space:pre }
		.shp0 { fill: #e7dfca } 
	</style>
	<g id="Header">
		<g id="logo">
			<path id="Shape 1" class="shp0" d="M13.19 2.22L12.45 3.33C13.8 4.43 14.67 6.11 14.67 7.99C14.67 9.87 13.8 11.55 12.45 12.65L13.19 13.76C14.9 12.42 16 10.33 16 7.99C16 5.65 14.9 3.57 13.19 2.22ZM11.7 4.45L10.95 5.57C11.6 6.18 12.01 7.03 12.01 7.99C12.01 8.95 11.6 9.81 10.95 10.42L11.7 11.53C12.7 10.68 13.33 9.41 13.33 7.99C13.33 6.57 12.7 5.31 11.7 4.45ZM8 0.66C7.22 0.66 6.98 1.11 6.98 1.11C6.98 1.11 4.94 3.36 3.53 4.35C3.27 4.51 2.99 4.66 2.49 4.66L1.33 4.66C0.6 4.66 0 5.26 0 5.99L0 9.99C0 10.73 0.6 11.32 1.33 11.32L2.49 11.32C2.99 11.32 3.27 11.47 3.53 11.64C4.94 12.63 6.98 14.87 6.98 14.87C6.98 14.87 7.22 15.32 8 15.32C8.74 15.32 9.33 14.73 9.33 13.99L9.33 1.99C9.33 1.25 8.74 0.66 8 0.66Z" />
		</g>
	</g>
</svg>